<svg xmlns="http://www.w3.org/2000/svg" viewBox="0 0 41 41" aria-hidden="true" class="www-Icon www-Icon--xlarge"><defs><linearGradient x1="49.597%" y1="113.983%" x2="49.597%" y2="-14.334%" id="afloating"><stop stop-color="#0069FF" stop-opacity=".5" offset="0%"></stop><stop stop-color="#0069FF" stop-opacity="0" offset="100%"></stop></linearGradient></defs><g transform="translate(1 2)" fill="none" fill-rule="evenodd"><path d="M34.815 26.634v-5.136c0-2.093-1.713-3.71-3.71-3.71h-5.422c-3.33 0-6.088-2.759-6.088-6.088V3.33" stroke="#0069FF" stroke-width="2"></path><path d="M4.185 26.634v-5.136c0-2.093 1.713-3.71 3.71-3.71h5.422c3.33 0 6.088-2.759 6.088-6.088V3.33" stroke="#0069FF" stroke-width="2" opacity=".3"></path><path d="M4.185 26.634S0 29.678 0 32.912c0 2.283 1.902 4.186 4.185 4.186 2.283 0 4.186-1.903 4.186-4.186.095-3.044-4.186-6.278-4.186-6.278z" stroke="#0069FF" stroke-width="2" fill="#FFFFFF" fill-rule="nonzero"></path><path d="M34.815 27.776v-6.183c0-2.093-1.713-3.71-3.71-3.71h-5.422c-3.33 0-6.088-2.759-6.088-6.088V4.28" stroke="url(#afloating)" stroke-width="7" stroke-linecap="round"></path><circle stroke="#120078" stroke-width="2" fill="#FFFFFF" fill-rule="nonzero" cx="19.5" cy="3.329" r="3.329"></circle><path d="M34.815 26.634s-4.186 3.044-4.186 6.278c0 2.283 1.903 4.186 4.186 4.186S39 35.195 39 32.912c0-3.044-4.185-6.278-4.185-6.278z" stroke="#120078" stroke-width="2" fill="#FFFFFF" fill-rule="nonzero"></path><circle fill="#0069FF" fill-rule="nonzero" cx="34.815" cy="33.102" r="1.237"></circle></g></svg>