<svg xmlns="http://www.w3.org/2000/svg" viewBox="0 0 41 41" aria-hidden="true" class="www-Icon www-Icon--xlarge"><defs><linearGradient x1="28.458%" y1="84.156%" x2="70.705%" y2="31.688%" id="ascaleresize"><stop stop-color="#0069FF" stop-opacity=".3" offset="0%"></stop><stop stop-color="#0069FF" stop-opacity="0" offset="100%"></stop></linearGradient></defs><g fill="none" fill-rule="evenodd"><path d="M16.4 38.6h3.5c7.454-.006 13.494-6.046 13.5-13.5 0-9.7-13.5-20-13.5-20S6.4 15 6.4 25.1v3.3" stroke="#0069FF" stroke-width="2"></path><path d="M12.3 37.6h2.4a9.28 9.28 0 0 0 9.3-9.3c0-6.7-9.3-13.8-9.3-13.8s-9.3 6.8-9.3 13.8v2.3" fill="url(#ascaleresize)" fill-rule="nonzero" transform="translate(1 1)"></path><path d="M17.3 38.5a9.34 9.34 0 0 0 7.7-9.2c0-6.7-9.3-13.8-9.3-13.8S8 21.1 6.6 27.4" stroke="#0069FF" stroke-width="2" opacity=".3"></path><path d="M6.4 33.9c0-3.6 4.8-7.1 4.8-7.1s4.8 3.6 4.8 7.1a4.8 4.8 0 1 1-9.6 0z" stroke="#120078" stroke-width="2" fill="#FFF" fill-rule="nonzero"></path><path stroke="#120078" stroke-width="2" d="M34.4 1h5.4v5.4M1 6.4V1h5.4m33.4 31.4v5.4h-5.4"></path></g></svg>