<svg xmlns="http://www.w3.org/2000/svg" viewBox="0 0 24 24" class="UnifiedMobileNav-toggleButtonSVG UnifiedMobileNav-closeButtonSVG"><title>Close navigation</title><path d="M14.8284 12l4.2427 4.2426c.781.781.781 2.0474 0 2.8285-.781.781-2.0474.781-2.8285 0L12 14.8284l-4.2426 4.2427c-.781.781-2.0474.781-2.8285 0-.781-.781-.781-2.0474 0-2.8285L9.1716 12 4.9289 7.7574c-.781-.781-.781-2.0474 0-2.8285.781-.781 2.0474-.781 2.8285 0L12 9.1716l4.2426-4.2427c.781-.781 2.0474-.781 2.8285 0 .781.781.781 2.0474 0 2.8285L14.8284 12z" fill-rule="evenodd"></path></svg>