<svg xmlns="http://www.w3.org/2000/svg" viewBox="0 0 41 41" aria-hidden="true" class="www-Icon www-Icon--xlarge"><defs><linearGradient x1="0%" y1="49.968%" y2="49.968%" id="amandat"><stop stop-color="#0069FF" stop-opacity=".3" offset="0%"></stop><stop stop-color="#0069FF" stop-opacity=".2" offset="36%"></stop><stop stop-color="#0069FF" stop-opacity="0" offset="100%"></stop></linearGradient><linearGradient x1="0%" y1="50.064%" y2="50.064%" id="bmandat"><stop stop-color="#0069FF" stop-opacity=".3" offset="0%"></stop><stop stop-color="#0069FF" stop-opacity=".2" offset="36%"></stop><stop stop-color="#0069FF" stop-opacity="0" offset="100%"></stop></linearGradient><linearGradient x1="0%" y1="50.225%" y2="50.225%" id="cmandat"><stop stop-color="#0069FF" stop-opacity=".3" offset="0%"></stop><stop stop-color="#0069FF" stop-opacity=".2" offset="36%"></stop><stop stop-color="#0069FF" stop-opacity="0" offset="100%"></stop></linearGradient></defs><g transform="translate(2 1)" fill="none" fill-rule="evenodd"><ellipse stroke="#0065FF" stroke-width="2.11" fill="#FFF" fill-rule="nonzero" cx="14.45" cy="6.878" rx="14.39" ry="6.821"></ellipse><path d="M.05 6.878v7.99c0 3.8 6.45 6.82 14.4 6.82s14.39-3.049 14.39-6.82v-7.99" stroke="#0065FF" stroke-width="2.11"></path><g stroke-width="2"><path d="M28.84.228v7.99c0 3.8-6.45 6.82-14.39 6.82S.05 11.99.05 8.219V.227c0 3.8 6.45 6.821 14.4 6.821S28.84 4.047 28.84.228z" stroke="#0069FF" fill="url(#amandat)" fill-rule="nonzero" transform="translate(0 6.65)"></path><path d="M12.44 17.66h4.02" stroke="#120078"></path></g><g stroke-width="2"><path d="M28.84.618V8.55c0 3.8-6.45 6.85-14.39 6.85S.05 12.35.05 8.55V.617c0 3.8 6.45 6.822 14.4 6.822S28.84 4.389 28.84.617z" stroke="#0069FF" fill="url(#bmandat)" fill-rule="nonzero" transform="translate(0 14.25)"></path><path d="M12.44 25.697h4.02" stroke="#120078"></path></g><g stroke-width="2"><path d="M28.84 0v7.99c0 3.8-6.45 6.82-14.39 6.82S.05 11.761.05 7.99V0c0 3.8 6.45 6.85 14.4 6.85S28.84 3.8 28.84 0z" stroke="#0069FF" fill="url(#cmandat)" fill-rule="nonzero" transform="translate(0 22.8)"></path><path d="M12.44 33.659h4.02" stroke="#120078"></path></g></g></svg>