<svg xmlns="http://www.w3.org/2000/svg" viewBox="0 0 41 41" aria-hidden="true" class="www-Icon www-Icon--xlarge"><defs><linearGradient x1="49.931%" y1=".209%" x2="49.931%" y2="96.798%" id="anatively"><stop stop-color="#0069FF" stop-opacity=".6" offset="0%"></stop><stop stop-color="#0069FF" stop-opacity="0" offset="100%"></stop></linearGradient></defs><g fill="none" fill-rule="evenodd"><path d="M13.857 31.971C6.905 31.971 1 26.352 1 19.4 1 8.733 13.857 1.59 13.857 1.59S26.714 8.924 26.714 19.4c0 6.952-5.904 12.571-12.857 12.571z" stroke="#120078" stroke-width="2" fill="#FFFFFF" fill-rule="nonzero"></path><path d="M38.048 18.257h-22.19c-1.048 0-2 .857-2 2v17.238c0 1.048.856 2 2 2h22.285c1.047 0 2-.857 2-2V20.257c-.095-1.047-.953-2-2.095-2z" stroke="#0069FF" stroke-width="2" fill="#FFFFFF" fill-rule="nonzero"></path><path d="M12.857 26.571C8 26.571 4 22.667 4 17.81c0-7.334 8.857-12.572 8.857-12.572s8.857 5.333 8.857 12.572c0 4.857-4.095 8.761-8.857 8.761z" fill="url(#anatively)" fill-rule="nonzero" transform="translate(1 1.4)"></path><path stroke="#0069FF" stroke-width="2" opacity=".3" d="M14.048 33.495h8.095l5.524-5.524 2.952 2.953h8.667"></path><path d="M24.238 2.352h.952c5.905 0 10.762 4.762 10.762 10.762" stroke="#B0D1FF" stroke-width="2"></path><path stroke="#B0D1FF" stroke-width="2" d="M38.905 9.114l-2.667 4.476-4.38-2.761"></path></g></svg>