<svg xmlns="http://www.w3.org/2000/svg" viewBox="0 0 41 41" aria-hidden="true" class="www-Icon www-Icon--xlarge"><defs><linearGradient x1="50%" y1="99.791%" x2="50%" y2=".47%" id="ashadowsnap"><stop stop-color="#0069FF" stop-opacity=".3" offset="0%"></stop><stop stop-color="#0069FF" stop-opacity="0" offset="100%"></stop></linearGradient></defs><g fill="none" fill-rule="evenodd"><path d="M39.1 38.5H2.2a.9.9 0 0 1-.9-.9V1.1a.9.9 0 0 1 .9-.9h36.9a.9.9 0 0 1 .9.9v36.5a.9.9 0 0 1-.9.9z" fill="url(#ashadowsnap)" fill-rule="nonzero" transform="translate(0 1)"></path><path d="M20.4 7.4s-11 6.4-11 14.9a11.19 11.19 0 0 0 11 11.4 11.19 11.19 0 0 0 11-11.4c0-8.3-11-14.9-11-14.9z" stroke="#0069FF" stroke-width="2" fill="#FFF" fill-rule="nonzero"></path><g stroke="#120078" stroke-width="2"><path d="M39.7 9.8V2.6A1.56 1.56 0 0 0 38.2 1h-6.9M9.5 1H2.6A1.58 1.58 0 0 0 1 2.6v7.1M1 31.2v7.1A1.61 1.61 0 0 0 2.6 40h6.9M31.2 40h6.9a1.58 1.58 0 0 0 1.6-1.6v-7.1"></path></g><g stroke="#120078" stroke-width="2"><path d="M20.4 17.3v10.3M15.4 22.5h9.9"></path></g></g></svg>