<svg xmlns="http://www.w3.org/2000/svg" viewBox="0 0 41 41" aria-hidden="true" class="www-Icon www-Icon--xlarge"><defs><linearGradient x1="44.396%" y1="25.78%" x2="59.956%" y2="85.985%" id="aresourcemetrics"><stop stop-color="#0069FF" stop-opacity=".4" offset="0%"></stop><stop stop-color="#0069FF" stop-opacity="0" offset="100%"></stop></linearGradient></defs><g fill="none" fill-rule="evenodd"><path d="M34.9 2.23H4.3A3.33 3.33 0 0 0 1 5.53v28.1a3.33 3.33 0 0 0 3.3 3.3h30.6a3.33 3.33 0 0 0 3.3-3.3V5.53a3.33 3.33 0 0 0-3.3-3.3z" stroke="#0069FF" stroke-width="2"></path><path d="M38.2 25.23H1M38.2 13.23H1" stroke="#0069FF" stroke-width="2" opacity=".3"></path><path d="M37.4 37V2.43l-9.8 14.4a2.66 2.66 0 0 1-3.8.7l-3.9-2.7a2.78 2.78 0 0 0-3.7.5L.8 33.43a2.07 2.07 0 0 0 1.6 3.4l35 .17z" fill="url(#aresourcemetrics)" fill-rule="nonzero" transform="translate(1)"></path><path d="M11 22.63L16.7 16a3.49 3.49 0 0 1 4.8-.7l2.6 1.8a3.66 3.66 0 0 0 5-.9l7.2-10.7" stroke="#120078" stroke-width="2"></path><path d="M35.3 3.93A2.43 2.43 0 0 1 37.2 1 2.53 2.53 0 0 1 40 3a2.4 2.4 0 0 1-2 2.8 2.35 2.35 0 0 1-2.7-1.87zM6.8 25.13a2.4 2.4 0 0 1 1.9-2.8 2.46 2.46 0 0 1 2.8 1.9A2.33 2.33 0 0 1 9.6 27a2.46 2.46 0 0 1-2.8-1.87z" stroke="#120078" stroke-width="2" fill="#FFF" fill-rule="nonzero"></path></g></svg>