<svg xmlns="http://www.w3.org/2000/svg" viewBox="0 0 41 41" aria-hidden="true" class="www-Icon www-Icon--xlarge"><defs><linearGradient x1="50%" y1="-.12%" x2="50%" y2="96.486%" id="aprivan"><stop stop-color="#0069FF" stop-opacity=".6" offset="0%"></stop><stop stop-color="#0069FF" stop-opacity="0" offset="100%"></stop></linearGradient></defs><g fill="none" fill-rule="evenodd"><path d="M39.9 31.9c1.1-2.8-6.2-9.7-17.5-15.3-11.3-5.6-20.2-7.9-21.3-5" stroke="#120078" stroke-width="2"></path><path d="M1.1 31.9C0 29.1 7.3 22.2 18.6 16.6c11.3-5.6 20.2-7.9 21.3-5" stroke="#120078" stroke-width="2"></path><path d="M20.5 35.8c-7.5 0-13.8-6.1-13.8-13.5 0-11.4 13.8-19.2 13.8-19.2S34.3 11 34.3 22.3c0 7.5-6.3 13.5-13.8 13.5z" stroke="#0069FF" stroke-width="2" fill="#FFFFFF" fill-rule="nonzero"></path><path d="M20.5 28.6c-5.2 0-9.6-4.2-9.6-9.4 0-7.9 9.6-13.5 9.6-13.5s9.6 5.7 9.6 13.5c0 5.2-4.4 9.4-9.6 9.4z" fill="url(#aprivan)" fill-rule="nonzero" transform="translate(0 3)"></path><path d="M39.9 11.6c1.1 2.8-6.2 9.7-17.5 15.3-11.3 5.6-20.2 7.9-21.3 5" stroke="#120078" stroke-width="2"></path><path d="M1.1 11.6C0 14.4 7.3 21.3 18.6 26.9c11.3 5.6 20.2 7.9 21.3 5" stroke="#120078" stroke-width="2"></path></g></svg>