<svg xmlns="http://www.w3.org/2000/svg" viewBox="0 0 41 41" aria-hidden="true" class="www-Icon www-Icon--xlarge"><defs><linearGradient x1="49.953%" y1="97.607%" x2="49.953%" y2="-29.302%" id="afirew"><stop stop-color="#0069FF" stop-opacity=".6" offset="0%"></stop><stop stop-color="#0069FF" stop-opacity="0" offset="100%"></stop></linearGradient><linearGradient x1="49.648%" y1="99.559%" x2="49.648%" y2="4.357%" id="bfirew"><stop stop-color="#0069FF" stop-opacity=".6" offset="0%"></stop><stop stop-color="#0069FF" stop-opacity="0" offset="100%"></stop></linearGradient></defs><g fill="none" fill-rule="evenodd"><path d="M32.8 1c-.7-.6-1.7-1-2.7-1h-26C1.9 0 0 1.9 0 4.2v8.5c0 1.1.4 2.1 1.1 2.8l3.4 3.8L36 3.6 32.8 1z" fill="url(#afirew)" fill-rule="nonzero" transform="translate(1 21)"></path><g stroke="#120078" stroke-width="2"><path d="M5.6 38.4V26.9c0-.9 1-1.7 2.1-1.7h27.6c1.2 0 2.1.8 2.1 1.7v11.5c0 .9-1 1.7-2.1 1.7H7.7c-1.1 0-2.1-.7-2.1-1.7z" fill="#FFFFFF" fill-rule="nonzero"></path><path d="M5.6 32.7h31.9M21.3 25.1v8M13.7 32.1v8.1M29.2 32.1v8.1"></path></g><path d="M20.4 1.2s-7.1 5.2-7.1 10.5c0 3.9 3.2 7.1 7.1 7.1 3.9 0 7.1-3.2 7.1-7.1 0-5-7.1-10.5-7.1-10.5z" fill="#FFFFFF" fill-rule="nonzero"></path><path d="M19.4.9s-6.6 4.9-6.6 9.8c0 3.7 3 6.6 6.6 6.6 3.7 0 6.6-3 6.6-6.6C26 5.9 19.4.9 19.4.9z" fill="url(#bfirew)" fill-rule="nonzero" transform="translate(1 1)"></path><path d="M20.4 1.2s-7.1 5.2-7.1 10.5c0 3.9 3.2 7.1 7.1 7.1 3.9 0 7.1-3.2 7.1-7.1 0-5-7.1-10.5-7.1-10.5z" stroke="#0069FF" stroke-width="2"></path><path d="M20.4 10.8s-2.6 1.9-2.6 3.9c0 1.5 1.2 2.6 2.6 2.6 1.5 0 2.6-1.2 2.6-2.6 0-1.9-2.6-3.9-2.6-3.9z" stroke="#120078" stroke-width="2" fill="#FFFFFF" fill-rule="nonzero"></path></g></svg>