<svg xmlns="http://www.w3.org/2000/svg" viewBox="0 0 41 41" aria-hidden="true" class="www-Icon www-Icon--xlarge"><defs><linearGradient x1="83.984%" y1="84.018%" x2="15.777%" y2="15.811%" id="ateamm"><stop stop-color="#0069FF" stop-opacity=".3" offset="0%"></stop><stop stop-color="#0069FF" stop-opacity="0" offset="100%"></stop></linearGradient><linearGradient x1="49.557%" y1="1.251%" x2="49.557%" y2="92.724%" id="bteamm"><stop stop-color="#0069FF" stop-opacity=".4" offset="0%"></stop><stop stop-color="#0069FF" stop-opacity="0" offset="100%"></stop></linearGradient><linearGradient x1="49.895%" y1="-.254%" x2="49.895%" y2="98.066%" id="cteamm"><stop stop-color="#0069FF" stop-opacity=".4" offset="0%"></stop><stop stop-color="#0069FF" stop-opacity="0" offset="100%"></stop></linearGradient></defs><g transform="translate(0 1.5)" fill="none" fill-rule="evenodd"><circle fill="url(#ateamm)" fill-rule="nonzero" cx="22.163" cy="20.166" r="10.559"></circle><path d="M31.39 29.678c-3.614 0-8.56 2.283-8.466 8.561l17.122-.095c-.095-6.183-5.041-8.466-8.656-8.466z" fill="url(#bteamm)" fill-rule="nonzero"></path><path d="M9.417 7.8c-3.615 0-8.56 2.283-8.466 8.561v3.615l17.122-.286v-3.329C17.978 10.083 13.127 7.8 9.417 7.8z" fill="url(#cteamm)" fill-rule="nonzero"></path><g opacity=".3" stroke="#0069FF" stroke-width="2"><path d="M6.088 20.737c.19 7.61 5.707 13.887 12.936 15.41M38.239 21.307v-.95c0-8.847-7.23-16.077-16.076-16.077-1.236 0-2.473.096-3.614.381"></path></g><path d="M39.951 38.239c0-6.278-4.946-8.561-8.56-8.466-3.615 0-8.562 2.283-8.467 8.561" stroke="#0069FF" stroke-width="2"></path><circle stroke="#120078" stroke-width="2" fill="#FFFFFF" fill-rule="nonzero" cx="31.39" cy="26.254" r="4.376"></circle><path d="M18.073 16.266c0-6.278-4.946-8.561-8.56-8.466-3.615.095-8.562 2.283-8.467 8.561" stroke="#0069FF" stroke-width="2"></path><circle stroke="#120078" stroke-width="2" fill="#FFFFFF" fill-rule="nonzero" cx="9.417" cy="4.376" r="4.376"></circle><path d="M22.163 17.312v5.612M19.405 20.166h5.612" stroke="#120078" stroke-width="2"></path></g></svg>